<?xml version="1.0" encoding="utf-8"?>
<!-- Generator: Adobe Illustrator 14.0.0, SVG Export Plug-In . SVG Version: 6.00 Build 43363)  -->
<!DOCTYPE svg PUBLIC "-//W3C//DTD SVG 1.1//EN" "http://www.w3.org/Graphics/SVG/1.1/DTD/svg11.dtd">
<svg version="1.1" id="Layer_1" xmlns="http://www.w3.org/2000/svg" xmlns:xlink="http://www.w3.org/1999/xlink" x="0px" y="0px"
	 width="432px" height="176.156px" viewBox="0 0 432 176.156" enable-background="new 0 0 432 176.156" xml:space="preserve">
<rect fill="none" width="432" height="176.156"/>
<g>
	<path d="M21.042,109.381V59.199c0-15.485,0.068-16.679,15.624-16.679h24.256l-27.95,20.234c-3.833,2.774-5.961,6.46-6.378,11.053
		c-0.415,4.59,0.784,8.836,3.602,12.73c2.821,3.891,6.403,6.321,10.753,7.282c4.596,1.052,8.812,0.194,12.646-2.583l29.026-21.012
		c1.497-1.084,3.08-0.472,4.749,1.835c1.671,2.305,1.756,4.003,0.259,5.084l-46.089,33.365
		C24.455,122.876,21.042,129.877,21.042,109.381"/>
	<path fill="#00AEEF" d="M112.202,133.716H87.373l-23.794-22.729l31.855-23.06c3.831-2.774,6.01-6.509,6.414-11.192
		c0.379-4.443-0.888-8.604-3.697-12.481c-2.807-3.88-6.381-6.36-10.701-7.408c-4.604-1.029-8.82-0.167-12.67,2.619L45.696,80.52
		c-1.497,1.084-3.069,0.489-4.718-1.789c-1.69-2.337-1.786-4.05-0.29-5.131l42.933-31.08h3.014c34.064,0,34.132,61.389,0,61.389
		H80.59L112.202,133.716z"/>
	<path d="M332.107,102.525H318.08V42.438h14.027V102.525z M289.382,62.779c0-4.208-1.014-6.313-3.039-6.313H242.15v12.509h44.192
		C288.368,68.975,289.382,66.91,289.382,62.779z M303.408,62.779c0,5.376-1.479,9.978-4.442,13.795
		c-3.194,4.287-7.402,6.431-12.623,6.431H242.15v19.521h-14.026V42.438h58.219c5.221,0,9.429,2.144,12.623,6.428
		C301.929,52.763,303.408,57.402,303.408,62.779z M213.452,83.998c0,5.046-1.521,9.349-4.56,12.935
		c-3.271,3.722-7.402,5.592-12.391,5.592h-51.906V88.498h51.906c1.95,0,2.924-1.502,2.924-4.5c0-3.001-0.975-4.502-2.924-4.502
		h-37.759c-4.989,0-9.12-1.871-12.391-5.611c-3.118-3.506-4.678-7.793-4.678-12.858c0-5.065,1.598-9.432,4.792-13.093
		c3.195-3.665,7.288-5.494,12.276-5.494h51.906v14.027h-52.023c-1.95,0-2.922,1.521-2.922,4.56c0,2.962,0.972,4.442,2.922,4.442
		h37.838c5.008,0,9.136,1.871,12.429,5.592C211.932,74.627,213.452,78.952,213.452,83.998z M410.958,102.525h-14.029l-36.123-40.448
		v40.448h-14.027V42.438h14.027l36.123,40.213V42.438h14.029V102.525z"/>
	<path fill="#00AEEF" d="M200.993,128.086v-6.516c0-0.985-0.554-1.482-1.663-1.482h-10.447c-1.106,0-1.658,0.497-1.658,1.482v6.516
		c0,0.985,0.552,1.479,1.658,1.479h10.447C200.438,129.566,200.993,129.072,200.993,128.086 M205.143,128.091
		c0,1.608-0.565,2.952-1.696,4.025c-1.13,1.064-2.501,1.6-4.118,1.6h-10.447c-1.614,0-2.985-0.535-4.115-1.6
		c-1.13-1.073-1.696-2.417-1.696-4.025v-6.525c0-1.608,0.565-2.952,1.696-4.025c1.13-1.067,2.501-1.603,4.115-1.603h10.447
		c1.617,0,2.987,0.535,4.118,1.603c1.131,1.073,1.696,2.417,1.696,4.025V128.091z M238.535,129.566c0.602,0,0.898-0.442,0.898-1.33
		c0-0.89-0.297-1.332-0.898-1.332h-13.076v2.662H238.535z M238.26,122.753c0.598,0,0.898-0.445,0.898-1.333
		c0-0.887-0.301-1.332-0.898-1.332h-12.801v2.665H238.26z M241.408,124.706c1.452,0.901,2.176,2.267,2.176,4.112
		c0,1.33-0.426,2.46-1.277,3.378c-0.923,1.016-2.168,1.521-3.735,1.521h-17.263v-17.778h16.951c1.567,0,2.813,0.508,3.735,1.521
		c0.83,0.918,1.245,2.048,1.245,3.381C243.24,122.5,242.629,123.786,241.408,124.706z M277.22,128.086v-6.516
		c0-0.985-0.555-1.482-1.66-1.482h-10.447c-1.108,0-1.66,0.497-1.66,1.482v6.516c0,0.985,0.552,1.479,1.66,1.479h10.447
		C276.665,129.566,277.22,129.072,277.22,128.086z M281.37,128.091c0,1.608-0.565,2.952-1.695,4.025
		c-1.128,1.064-2.502,1.6-4.115,1.6h-10.447c-1.614,0-2.987-0.535-4.118-1.6c-1.127-1.073-1.692-2.417-1.692-4.025v-6.525
		c0-1.608,0.565-2.952,1.692-4.025c1.131-1.067,2.504-1.603,4.118-1.603h10.447c1.613,0,2.987,0.535,4.115,1.603
		c1.13,1.073,1.695,2.417,1.695,4.025V128.091z M317.736,120.088h-8.025v13.628h-4.15v-13.628h-8.025v-4.15h20.201V120.088z
		 M337.812,133.716h-4.15v-17.778h4.15V133.716z M373.555,133.716h-13.771c-1.611,0-2.984-0.535-4.115-1.6
		c-1.13-1.073-1.695-2.417-1.695-4.025v-6.525c0-1.608,0.565-2.952,1.695-4.025c1.131-1.067,2.504-1.603,4.115-1.603h13.771v4.15
		h-13.771c-1.105,0-1.657,0.497-1.657,1.482v6.516c0,0.985,0.552,1.479,1.657,1.479h13.771V133.716z M410.958,128.236
		c0,1.491-0.45,2.767-1.349,3.829c-0.97,1.1-2.192,1.651-3.667,1.651h-15.36v-4.15h15.36c0.576,0,0.865-0.442,0.865-1.33
		c0-0.89-0.289-1.332-0.865-1.332h-11.174c-1.475,0-2.698-0.555-3.667-1.66c-0.923-1.038-1.385-2.308-1.385-3.807
		s0.473-2.79,1.42-3.875c0.945-1.084,2.157-1.624,3.632-1.624h15.359v4.15h-15.395c-0.576,0-0.863,0.45-0.863,1.349
		c0,0.877,0.287,1.316,0.863,1.316h11.197c1.48,0,2.704,0.552,3.679,1.654C410.508,125.462,410.958,126.743,410.958,128.236z
		 M165.49,133.716h-5.674l-8.888-9.961h10.688c0.762,0,1.142-0.611,1.142-1.832c0-1.224-0.379-1.835-1.142-1.835h-12.866v13.628
		h-4.153v-17.778h17.263c1.592,0,2.848,0.622,3.771,1.867c0.854,1.131,1.281,2.502,1.281,4.118c0,1.613-0.426,2.984-1.281,4.115
		c-0.923,1.245-2.179,1.867-3.771,1.867h-1.592L165.49,133.716z"/>
</g>
</svg>
